<?xml version="1.0" standalone="no"?><!DOCTYPE svg PUBLIC "-//W3C//DTD SVG 1.1//EN" "http://www.w3.org/Graphics/SVG/1.1/DTD/svg11.dtd"><svg t="1624107686916" class="icon" viewBox="0 0 1025 1024" version="1.1" xmlns="http://www.w3.org/2000/svg" p-id="1520" xmlns:xlink="http://www.w3.org/1999/xlink" width="200.1953125" height="200"><defs><style type="text/css"></style></defs><path d="M1.599219 0.499756h1023.500244v1023.500244H1.599219z" fill="#9FFFF7" p-id="1521"></path><path d="M763.527184 596.308834c0 3.198438-0.299854 6.296925-0.999512 9.495363v-18.890776c0.699658 2.998536 0.999512 6.196974 0.999512 9.395413z" fill="#FEA7C1" p-id="1522"></path><path d="M767.525232 606.703758l-9.895169-0.999512v-18.890776l9.895169-0.999512c0.699658 3.398341 1.099463 6.996584 1.099463 10.494876-0.099951 3.498292-0.399805 6.996584-1.099463 10.394924z" fill="#6B3437" p-id="1523"></path><path d="M237.284139 641.686676a301.152953 124.739092 0 1 0 602.305905 0 301.152953 124.739092 0 1 0-602.305905 0Z" fill="#4DECE1" p-id="1524"></path><path d="M780.219034 365.721425l30.08531 270.068131C798.610054 693.661298 681.567204 739.039141 538.936847 739.039141S279.16369 693.661298 267.569351 635.789556c-0.599707-3.098487-0.999512-6.296925-0.999512-9.495364l30.08531-260.572767h483.563885z" fill="#4DECE1" p-id="1525"></path><path d="M296.655149 364.322108a241.781942 65.068228 0 1 0 483.563885 0 241.781942 65.068228 0 1 0-483.563885 0Z" fill="#4DECE1" p-id="1526"></path><path d="M187.20859 614.999707a301.152953 128.137433 0 1 0 602.305905 0 301.152953 128.137433 0 1 0-602.305905 0Z" fill="#FEA7C1" p-id="1527"></path><path d="M488.361542 750.63348c-81.460224 0-158.122792-13.493411-215.894583-38.081406-59.870766-25.487555-92.75471-60.070669-92.754709-97.552367s32.983895-72.064812 92.754709-97.552367c57.771791-24.587994 134.434358-38.081406 215.894583-38.081405s158.122792 13.493411 215.894583 38.081405c59.870766 25.487555 92.75471 60.070669 92.75471 97.552367s-32.983895 72.064812-92.75471 97.552367c-57.771791 24.587994-134.434358 38.081406-215.894583 38.081406z m0-256.274866c-79.461201 0-154.024793 13.093607-209.997462 36.981942-26.78692 11.394436-47.67672 24.587994-62.169644 39.080918-14.293021 14.392972-21.489507 29.385652-21.489507 44.578233s7.196486 30.285212 21.489507 44.578233c14.492923 14.592875 35.382723 27.686481 62.169644 39.080918 55.97267 23.788385 130.536262 36.981942 209.997462 36.981942s154.024793-13.093607 209.997462-36.981942c26.78692-11.394436 47.67672-24.587994 62.169644-39.080918 14.293021-14.392972 21.489507-29.385652 21.489507-44.578233s-7.196486-30.285212-21.489507-44.578233c-14.492923-14.592875-35.382723-27.686481-62.169644-39.080918-55.97267-23.788385-130.536262-36.981942-209.997462-36.981942z" fill="#6B3437" p-id="1528"></path><path d="M498.456613 492.659444c-4.097999 0-8.195998 0-12.194046 0.099951 142.530405 6.69673 253.176379 56.87223 253.176379 117.642557 0 63.668912-119.441679 123.139873-271.66735 125.838556 10.794729 0.499756 21.689409 0.79961 32.783992 0.799609 157.922889 0 283.961347-60.570425 283.961347-125.938506-0.099951-65.368082-128.137433-118.442167-286.060322-118.442167z" fill="#F27A97" p-id="1529"></path><path d="M730.043533 335.636115L760.128843 605.704246C748.534505 663.575988 631.491654 708.953831 488.761347 708.953831S229.088141 663.575988 217.493802 605.704246c-0.599707-3.098487-0.999512-6.296925-0.999512-9.495364l30.08531-260.572767h483.463933z" fill="#FFFFFF" p-id="1530"></path><path d="M488.861298 716.550122c-69.665983 0-136.23348-10.794729-187.508443-30.485115-52.67428-20.190142-85.058468-48.176476-91.15549-78.861493-0.699658-3.598243-1.099463-7.296437-1.099464-10.89468v-0.899561L239.183211 334.836506c0.399805-3.798145 3.598243-6.596779 7.49634-6.596779h483.463934c3.798145 0 6.996584 2.898585 7.496339 6.69673l29.985359 269.968179c0.099951 0.79961 0.099951 1.499268-0.099951 2.298878-6.196974 30.685017-38.581162 58.671352-91.155491 78.861493-51.374915 19.590434-117.942411 30.485115-187.508443 30.485115zM223.99063 596.708638c0 2.49878 0.299854 5.097511 0.799609 7.596291 5.097511 25.487555 34.183309 49.575793 81.860029 67.866862 49.575793 18.990727 114.244217 29.485603 182.111079 29.485603s132.535286-10.494876 182.111079-29.485603c46.977062-17.991215 75.862958-41.679649 81.560175-66.667447l-29.185749-262.171987H253.27633L223.99063 596.708638z" fill="#6B3437" p-id="1531"></path><path d="M725.045974 347.630259h-35.682577l28.486091 255.875061c-10.994632 55.073109-122.440215 98.351977-258.27389 98.351976h-3.29839c12.793753 0.79961 25.88736 1.199414 39.180869 1.199415 135.833675 0 247.279258-43.278868 258.27389-98.351977l-28.685993-257.074475z" fill="#F1E8E3" p-id="1532"></path><path d="M246.5796 334.236798a241.781942 65.068228 0 1 0 483.563885 0 241.781942 65.068228 0 1 0-483.563885 0Z" fill="#FEA7C1" p-id="1533"></path><path d="M488.361542 406.801367c-65.16818 0-126.638165-6.896633-172.915568-19.290581-49.975598-13.493411-76.362714-31.884431-76.362714-53.273988s26.387116-39.780576 76.362714-53.273987c46.277404-12.493899 107.647438-19.290581 172.915568-19.290581s126.638165 6.896633 172.915569 19.290581c49.975598 13.493411 76.362714 31.884431 76.362713 53.273987s-26.387116 39.780576-76.362713 53.273988c-46.277404 12.393948-107.747389 19.290581-172.915569 19.290581z m0-130.136457c-63.968765 0-123.939483 6.69673-169.017472 18.790825-31.584578 8.495852-65.268131 23.188677-65.268131 38.781063s33.683553 30.285212 65.268131 38.781064c45.077989 12.094095 105.048707 18.790825 169.017472 18.790825s123.939483-6.69673 169.017472-18.790825c31.584578-8.495852 65.268131-23.188677 65.268131-38.781064s-33.683553-30.285212-65.268131-38.781063c-45.077989-12.194046-105.148658-18.790825-169.017472-18.790825z" fill="#6B3437" p-id="1534"></path><path d="M292.457199 330.338702a195.904344 45.577745 0 1 0 391.808687 0 195.904344 45.577745 0 1 0-391.808687 0Z" fill="#FFFFFF" p-id="1535"></path><path d="M527.842265 562.625281c0-8.595803-5.897121-15.792289-13.793265-17.891264-1.899073-8.195998-9.19551-14.293021-17.991216-14.293021-6.097023 0-11.394436 2.898585-14.792777 7.396388-3.398341-4.497804-8.695754-7.396388-14.792777-7.396388-9.095559 0-16.591898 6.596779-18.191117 15.192581-6.596779 2.798633-11.094583 9.295461-11.094583 16.891752 0 5.997072 2.898585 11.294485 7.296437 14.692826-0.999512 3.298389-1.599219 6.69673-1.599219 9.695266 0 11.894192 9.095559 21.689409 20.090191 21.68941h39.580673c11.094583 0 20.09019-9.695266 20.09019-21.68941 0-3.098487-0.599707-6.596779-1.69917-9.995119 4.297901-3.398341 6.896633-8.495852 6.896633-14.293021z" fill="#FCFFFB" p-id="1536"></path><path d="M502.654563 610.601855h-39.580673c-12.194046 0-22.089214-10.594827-22.089215-23.588483 0-2.798633 0.499756-5.797169 1.299366-8.995607-4.497804-3.898097-6.996584-9.395412-6.996584-15.392484 0-7.796193 4.397853-14.892728 11.394437-18.291069 2.098975-9.19551 10.294973-15.792289 19.890288-15.792289 5.597267 0 10.994632 2.298878 14.792777 6.396876 3.798145-3.998048 9.19551-6.396877 14.792776-6.396876 9.19551 0 17.091654 5.997072 19.590435 14.692826 8.3959 2.698682 14.19307 10.494876 14.19307 19.390532 0 5.697218-2.398829 11.094583-6.596779 14.992679 0.899561 3.298389 1.399317 6.496828 1.399316 9.395412 0 12.993655-9.895168 23.588482-22.089214 23.588483z m-36.182333-78.161835c-7.996096 0-14.792777 5.697218-16.192093 13.593362l-0.199903 0.999512-0.999512 0.399805c-6.097023 2.598731-9.99512 8.495852-9.995119 15.09263 0 5.197462 2.398829 9.99512 6.496827 13.093607l1.099464 0.79961-0.399805 1.299365c-0.999512 3.198438-1.499268 6.396877-1.499268 9.095559 0 10.89468 8.195998 19.690386 18.191118 19.690386h39.580673c9.99512 0 18.191118-8.795705 18.191118-19.690386 0-2.798633-0.599707-6.097023-1.59922-9.495364l-0.399804-1.299365 0.999512-0.79961c3.898097-3.098487 6.097023-7.796193 6.097023-12.793753 0-7.49634-5.097511-14.093119-12.393949-15.992191l-1.199414-0.299854-0.299854-1.199414c-1.69917-7.49634-8.295949-12.793753-16.092142-12.793753-5.297413 0-10.095071 2.398829-13.193558 6.69673l-1.599219 2.098975-1.599219-2.098975c-2.898585-3.998048-7.696242-6.396877-12.993656-6.396876z" fill="#6B3437" p-id="1537"></path><path d="M466.672133 547.232796m-9.99512 0a9.99512 9.99512 0 1 0 19.990239 0 9.99512 9.99512 0 1 0-19.990239 0Z" fill="#FEA7C1" p-id="1538"></path><path d="M495.757931 547.232796m-9.99512 0a9.99512 9.99512 0 1 0 19.990239 0 9.99512 9.99512 0 1 0-19.990239 0Z" fill="#FEA7C1" p-id="1539"></path><path d="M513.24939 563.42489m-8.795705 0a8.795705 8.795705 0 1 0 17.59141 0 8.795705 8.795705 0 1 0-17.59141 0Z" fill="#FEA7C1" p-id="1540"></path><path d="M451.679453 563.42489m-8.795705 0a8.795705 8.795705 0 1 0 17.591411 0 8.795705 8.795705 0 1 0-17.591411 0Z" fill="#FEA7C1" p-id="1541"></path><path d="M509.451245 588.712543c-2.098975 5.597267-14.792777 5.897121-25.587507 6.097023-10.89468 0.199902-22.788873 0.399805-24.987799-4.897609-2.798633-6.796681 9.895168-23.588482 25.187702-23.788385 14.892728-0.199902 27.886384 15.692338 25.387604 22.588971z" fill="#FEA7C1" p-id="1542"></path><path d="M519.446364 550.83104s5.997072 4.897609 5.297413 13.693313c-0.699658 8.795705-6.69673 11.494388-6.69673 11.494388s9.99512-9.895168 1.399317-25.187701z" fill="#F1E8E3" p-id="1543"></path></svg>